<svg width="16" height="19" viewBox="0 0 16 19" fill="none" xmlns="http://www.w3.org/2000/svg">
<path d="M7.04517 17.5484C5.72904 16.7484 6.09033 15.9484 7.48388 16.5161C8.10323 16.7742 8.33549 16.7484 8.82581 16.4129C9.60001 15.871 9.80646 15.8968 9.80646 16.5936C9.80646 16.9549 9.52259 17.3161 9.00646 17.6258C8.02581 18.1678 8.05162 18.1678 7.04517 17.5484Z" fill="#00FFE6"/>
<path d="M13.8322 14.5291C13.5226 14.2194 13.6774 13.4194 14.0645 13.4194C14.7613 13.4194 14.9677 12.4129 14.9677 8.80002V5.18711L14.1677 4.61937C13.471 4.12904 13.4193 4.02582 13.7548 3.66453C14.1161 3.32904 14.2451 3.35485 15.071 3.84517L16 4.43872V8.90325V13.3936L15.3032 13.8839C14.2193 14.6323 14.0129 14.7097 13.8322 14.5291Z" fill="#00FFE6"/>
<path d="M0.825807 13.9097C0.0774187 13.4194 0 13.2387 0 12.1032C0 11.0194 0.0774195 10.8387 0.51613 10.8387C0.95484 10.8387 1.03226 11.0194 1.03226 11.871C1.03226 12.6194 1.13549 12.9032 1.41936 12.9032C1.93549 12.9032 2.16775 13.5226 1.88388 14.0387C1.70323 14.3742 1.54839 14.3484 0.825807 13.9097Z" fill="#00FFE6"/>
<path d="M7.2258 14.0645C7.01935 13.8065 6.96774 13.4194 7.09677 12.9807C7.48387 11.6129 7.53548 6.63227 7.19999 5.60001C6.96773 4.87742 6.94193 4.46452 7.14838 4.18065C7.56129 3.50968 8.4129 3.50968 8.87742 4.15484C9.23871 4.67097 9.23871 4.82581 8.90322 5.34194C8.36129 6.16775 8.36129 12.0258 8.90322 12.7484C9.23871 13.2129 9.23871 13.3161 8.72258 13.8581C8.07742 14.5549 7.66451 14.6065 7.2258 14.0645ZM8.38709 13.1613C8.38709 12.9549 8.18064 12.7484 7.94838 12.6968C7.6129 12.6452 7.48387 12.7742 7.48387 13.1613C7.48387 13.5484 7.6129 13.6774 7.94838 13.6258C8.18064 13.5742 8.38709 13.3678 8.38709 13.1613ZM8.33548 4.49033C8.25806 4.28387 8.10322 4.12904 8 4.12904C7.63871 4.12904 7.43225 4.64517 7.58709 5.08388C7.71612 5.39355 7.81935 5.41936 8.12903 5.1613C8.30967 5.00646 8.4129 4.69678 8.33548 4.49033Z" fill="#00FFE6"/>
<path d="M5.1355 11.8968C4.54195 11.4065 4.54195 11.4065 4.98066 10.4774C5.54841 9.29034 5.54841 8.41292 4.98066 7.45808C4.54195 6.7355 4.54195 6.68388 5.08389 6.14195C5.57421 5.65162 5.75486 5.62582 6.3226 5.88388C7.04518 6.21937 7.22583 7.32905 6.58067 7.58711C6.01292 7.79356 6.03873 10.2194 6.60647 10.4258C7.14841 10.6323 6.96776 11.5871 6.29679 12.0516C5.80647 12.3613 5.67744 12.3355 5.1355 11.8968ZM6.3226 11.0968C6.3226 10.8903 6.11615 10.6839 5.88389 10.6323C5.54841 10.5807 5.41937 10.7097 5.41937 11.0968C5.41937 11.4839 5.54841 11.6129 5.88389 11.5613C6.11615 11.5097 6.3226 11.3032 6.3226 11.0968ZM6.16776 7.25163C6.58066 6.99356 6.3226 6.45163 5.78066 6.45163C5.57421 6.45163 5.41937 6.68388 5.41937 6.96776C5.41937 7.5355 5.60002 7.61292 6.16776 7.25163Z" fill="#00FFE6"/>
<path d="M9.44516 11.9742C8.98064 11.5355 8.90322 10.4258 9.29032 10.1936C9.44516 10.1161 9.54838 9.52259 9.54838 8.90324C9.54838 8.28388 9.44516 7.69033 9.29032 7.61291C8.92903 7.38066 8.95483 6.3742 9.34193 5.9871C9.78064 5.54839 10.2452 5.60001 10.8645 6.21936C11.3548 6.70969 11.3806 6.78711 10.9419 7.40646C10.4 8.25808 10.3742 9.83227 10.9161 10.6065C11.329 11.1742 11.3032 11.2258 10.7871 11.7936C10.1419 12.4903 9.96129 12.5161 9.44516 11.9742ZM10.4774 11.329C10.7355 10.8903 10.1419 10.4 9.78064 10.7613C9.47096 11.071 9.67742 11.6129 10.0645 11.6129C10.1935 11.6129 10.3742 11.4839 10.4774 11.329ZM10.5806 6.96775C10.5806 6.83872 10.4516 6.65807 10.2968 6.55485C9.93548 6.3484 9.44516 6.83872 9.65161 7.20001C9.83225 7.48388 10.5806 7.30324 10.5806 6.96775Z" fill="#00FFE6"/>
<path d="M2.78712 9.41936C2.55486 8.87743 2.58067 8.69678 2.96777 8.25807C3.56131 7.61291 3.92261 7.61291 4.51616 8.25807C4.90325 8.69678 4.92906 8.87743 4.6968 9.41936C4.2839 10.2968 3.20002 10.2968 2.78712 9.41936ZM4.07745 8.98065C4.02583 8.64517 3.8968 8.3871 3.74196 8.3871C3.61293 8.3871 3.45809 8.64517 3.40647 8.98065C3.35486 9.36775 3.45809 9.5484 3.74196 9.5484C4.02583 9.5484 4.12906 9.36775 4.07745 8.98065Z" fill="#00FFE6"/>
<path d="M11.4065 9.75487C10.942 9.29035 11.0452 8.3097 11.5871 8.00003C12.2323 7.66454 12.2839 7.66454 12.7484 8.15487C13.2129 8.59358 13.2903 9.29035 12.9032 9.29035C12.7742 9.29035 12.6452 9.10971 12.6452 8.90325C12.6452 8.43874 11.9742 8.38712 11.7161 8.82583C11.6129 8.98067 11.7161 9.23874 11.9484 9.41938C12.2065 9.60003 12.3871 9.80648 12.3871 9.90971C12.3871 10.1678 11.742 10.0904 11.4065 9.75487Z" fill="#00FFE6"/>
<path d="M0 5.03227C0 4.02581 0.0774195 3.84517 0.774195 3.48388C1.21291 3.25162 1.67742 3.14839 1.80645 3.22581C2.24517 3.50968 2.09033 4.18065 1.54839 4.30968C1.16129 4.41291 1.03226 4.67098 1.03226 5.31614C1.03226 6.01291 0.929034 6.19356 0.51613 6.19356C0.0774195 6.19356 0 6.01291 0 5.03227Z" fill="#00FFE6"/>
<path d="M6.29677 1.49678C6.06451 1.13549 7.32903 0 7.94839 0C8.51613 0 10.0645 0.95484 10.0645 1.29032C10.0645 1.78065 9.29033 1.88387 8.67097 1.47097C8.15484 1.10968 8 1.10968 7.5871 1.41936C6.99355 1.88387 6.52903 1.90968 6.29677 1.49678Z" fill="#00FFE6"/>
<path d="M9.10967 1.41936C9.03225 1.1871 9.03225 0.954844 9.10967 0.877424C9.34193 0.645166 9.80644 1.03226 9.80644 1.44517C9.80644 1.93549 9.31612 1.90968 9.10967 1.41936Z" fill="#00FFE6"/>
<path d="M13.8323 14.529C13.5226 14.1936 13.7033 13.6774 14.2194 13.3936C14.6065 13.1871 14.7097 13.1871 14.6065 13.3936C14.5033 13.5484 14.5549 13.6774 14.6839 13.6774C14.8388 13.6774 14.9678 13.7549 14.9678 13.8839C14.9678 14.1678 14.0129 14.7097 13.8323 14.529Z" fill="#00FFE6"/>
<path d="M0 8.80002C0 4.77421 0.0516122 4.15485 0.43871 3.84517C0.722581 3.58711 0.800003 3.58711 0.670971 3.81937C0.567745 3.9742 0.59355 4.12904 0.722583 4.12904C1.08387 4.12904 1.10968 10.8387 0.748387 12.2323C0.593548 12.8774 0.361289 13.4194 0.232257 13.4194C0.103224 13.4194 0 11.3549 0 8.80002Z" fill="#00FFE6"/>
<path d="M11.4065 9.54841C10.942 8.80002 11.0194 8.61938 11.6129 9.16131C12.2065 9.70325 12.542 9.4968 12.6968 8.51615L12.8 7.87099L13.0065 8.59357C13.3678 9.85809 12.1033 10.6323 11.4065 9.54841Z" fill="#00FFE6"/>
<path d="M2.9419 9.44518C2.65803 8.7226 2.96771 8.12905 3.61287 8.07743L4.25804 8.00002L3.63868 8.25808C3.17416 8.46453 3.07094 8.67098 3.14836 9.16131C3.30319 9.85808 3.17416 10.0129 2.9419 9.44518Z" fill="#00FFE6"/>
</svg>
