<svg width="12" height="12" viewBox="0 0 12 12" fill="none" xmlns="http://www.w3.org/2000/svg">
<g clip-path="url(#clip0_1_35)">
<path fill-rule="evenodd" clip-rule="evenodd" d="M0.375 10.5469H2.90625V11.625H0.375V10.5469ZM2.90695 2.90625H0.375V1.82812H2.90625V2.89219C2.90625 2.89688 2.90665 2.90156 2.90695 2.90625ZM4.35938 4.35938H1.82812V3.28125H4.35938V4.35938ZM8.71875 8.71875H6.1875V7.65068C6.1875 7.6474 6.18715 7.64386 6.18698 7.64058H8.71875V8.7187V8.71875ZM6.1875 10.5469H8.71875V11.625H6.1875V10.5469ZM1.82812 9.09375H4.35938V10.1719H1.82812V9.09375ZM0.375 5.8125V4.73438H2.90625V5.8125H0.375ZM1.82812 7.26562V6.1875H4.35938V7.26562H1.82812ZM0.375 8.71875V7.64062H2.90625V8.71875H0.375ZM10.1719 10.1719H7.64062V9.09375H10.1719V10.1719ZM11.8125 10.1719H10.5469V8.90625C10.5469 8.88162 10.5421 8.85723 10.5326 8.83447C10.5232 8.81172 10.5094 8.79104 10.492 8.77363C10.4746 8.75621 10.4539 8.7424 10.4312 8.73298C10.4084 8.72357 10.384 8.71873 10.3594 8.71875H9.09375V7.45312C9.09375 7.4034 9.074 7.35571 9.03883 7.32054C9.00367 7.28538 8.95598 7.26562 8.90625 7.26562H7.64062V6C7.64062 5.95027 7.62087 5.90258 7.58571 5.86742C7.55054 5.83225 7.50285 5.8125 7.45312 5.8125H6.1875V4.54688C6.1875 4.49715 6.16775 4.44946 6.13258 4.41429C6.09742 4.37913 6.04973 4.35938 6 4.35938H4.73438V3.09375C4.73438 3.04402 4.71462 2.99633 4.67946 2.96117C4.64429 2.926 4.5966 2.90625 4.54688 2.90625H3.28059C3.28087 2.90156 3.28127 2.89688 3.28127 2.89219V1.64062C3.28127 1.5909 3.26152 1.54321 3.22636 1.50804C3.19119 1.47288 3.1435 1.45312 3.09377 1.45312H1.82812V0.1875C1.82812 0.137772 1.80837 0.0900806 1.77321 0.0549175C1.73804 0.0197544 1.69035 0 1.64062 0L0.1875 0C0.137772 0 0.0900806 0.0197544 0.0549175 0.0549175C0.0197544 0.0900806 0 0.137772 0 0.1875L0 11.8125C0 11.8622 0.0197544 11.9099 0.0549175 11.9451C0.0900806 11.9802 0.137772 12 0.1875 12H11.8125C11.8622 12 11.9099 11.9802 11.9451 11.9451C11.9802 11.9099 12 11.8622 12 11.8125V10.3594C12 10.3096 11.9802 10.262 11.9451 10.2268C11.9099 10.1916 11.8622 10.1719 11.8125 10.1719Z" fill="#00FFE6"/>
</g>
<defs>
<clipPath id="clip0_1_35">
<rect width="12" height="12" fill="white"/>
</clipPath>
</defs>
</svg>
